<svg width="17" height="18" viewBox="0 0 17 18" fill="none" xmlns="http://www.w3.org/2000/svg">
<path d="M12.4561 3.79335C13.235 3.65272 14.051 3.57103 14.9453 3.54072C15.4236 3.52472 15.8245 3.90366 15.8245 4.38198V14.3499C15.8245 14.8063 15.4598 15.1836 15.0043 15.1903C12.4005 15.2299 10.4401 15.7099 8.24557 17M8.24557 17C6.05105 15.7099 4.09065 15.2299 1.48687 15.1912C1.0313 15.1844 0.666668 14.8063 0.666668 14.3499V4.38198C0.666668 3.91124 1.05319 3.52472 1.52308 3.53988C4.10917 3.62324 6.06116 4.10998 8.24557 5.33355M8.24557 17V4.88387C8.53777 3.33272 9.78408 1.8262 11.2628 1.08515C11.811 0.809788 12.4561 1.23842 12.4561 1.85231V12.1478C12.4561 12.5049 12.2312 12.824 11.8927 12.9377C10.1496 13.523 8.57904 15.2324 8.24557 17Z" stroke="#819299" stroke-linecap="round" stroke-linejoin="round"/>
</svg>
