<svg width="16" height="16" viewBox="0 0 16 16" fill="none" xmlns="http://www.w3.org/2000/svg">
<path d="M13.201 4.74074H14.0655C14.7663 4.74074 15.3334 5.30785 15.3334 6.00859V14.0663C15.3334 14.7662 14.7663 15.3333 14.0655 15.3333H5.19381C4.49307 15.3333 3.92596 14.7662 3.92596 14.0655V12.8889M5.05041 0.666666V2.2963M9.9393 0.666666V2.2963M4.89559 5.55555H9.78448M4.89559 8.81481H9.78448M1.48233 12.8889H10.6995C11.2446 12.8889 11.7531 12.6167 12.0554 12.1629L12.6534 11.265C13.0103 10.7296 13.201 10.1006 13.201 9.45689V3.11111C13.201 2.21074 12.4717 1.48148 11.5714 1.48148H3.42322C2.52285 1.48148 1.79359 2.21074 1.79359 3.11111V8.86044C1.79359 9.36644 1.67544 9.86511 1.44974 10.3181L0.753887 11.7099C0.482554 12.2517 0.876924 12.8889 1.48233 12.8889Z" stroke="#222222" stroke-linecap="round" stroke-linejoin="round"/>
</svg>
