<svg width="20" height="20" viewBox="0 0 20 20" fill="none" xmlns="http://www.w3.org/2000/svg">
<path d="M15.345 5.345L12.9883 2.98833C12.6758 2.67583 12.2517 2.5 11.81 2.5H5.83333C4.9125 2.5 4.16667 3.24583 4.16667 4.16667V15.8333C4.16667 16.7542 4.9125 17.5 5.83333 17.5H14.1667C15.0875 17.5 15.8333 16.7542 15.8333 15.8333V6.52333C15.8333 6.08167 15.6575 5.6575 15.345 5.345V5.345Z" stroke="#819299" stroke-linecap="round" stroke-linejoin="round"/>
<path d="M15.8333 6.66667H12.5C12.04 6.66667 11.6667 6.29333 11.6667 5.83333V2.5" stroke="#819299" stroke-linecap="round" stroke-linejoin="round"/>
<path d="M6.66667 9.16663H11.6667" stroke="#819299" stroke-linecap="round" stroke-linejoin="round"/>
<path d="M6.66667 11.6666H11.6667" stroke="#819299" stroke-linecap="round" stroke-linejoin="round"/>
<path d="M6.66667 14.1666H10.275" stroke="#819299" stroke-linecap="round" stroke-linejoin="round"/>
</svg>
