<svg width="18" height="18" viewBox="0 0 18 18" fill="none" xmlns="http://www.w3.org/2000/svg">
<path d="M5.0664 16.8504C4.476 16.8504 3.9168 16.72 3.4144 16.4872L1 17L1.5048 14.5808C1.2704 14.0768 1.1392 13.5152 1.1392 12.9232C1.1392 10.7568 2.8952 9 5.0624 9C7.2296 9 8.9856 10.7568 8.9856 12.9232C8.9856 15.0896 7.2288 16.8464 5.0624 16.8464M4.6896 9.0152C4.3752 8.3312 4.2 7.5816 4.2 6.792C4.2 3.5784 7.0784 1 10.6 1C14.1216 1 17 3.5784 17 6.792C17 8.6912 15.9904 10.3632 14.4408 11.4176C14.4416 12.0224 14.44 12.8376 14.44 13.6936L11.9288 12.4568C11.4992 12.5392 11.0552 12.584 10.6 12.584C10.0312 12.584 9.4816 12.5104 8.9552 12.384M10.6 7.4352C10.6 6.9096 10.9248 6.6248 11.2504 6.4056C11.5688 6.1912 11.8872 5.912 11.8872 5.3976C11.8872 4.6864 11.3112 4.1104 10.6 4.1104C9.8888 4.1104 9.3128 4.6864 9.3128 5.3976M3.23629 12.9717C3.25191 12.9873 3.25191 13.0126 3.23629 13.0282C3.22067 13.0439 3.19534 13.0439 3.17972 13.0282C3.1641 13.0126 3.1641 12.9873 3.17972 12.9717C3.19534 12.9561 3.22067 12.9561 3.23629 12.9717ZM5.03629 12.9717C5.05191 12.9873 5.05191 13.0126 5.03629 13.0282C5.02067 13.0439 4.99534 13.0439 4.97972 13.0282C4.9641 13.0126 4.9641 12.9873 4.97972 12.9717C4.99534 12.9561 5.02067 12.9561 5.03629 12.9717ZM6.83629 12.9717C6.85191 12.9873 6.85191 13.0126 6.83629 13.0282C6.82067 13.0439 6.79534 13.0439 6.77972 13.0282C6.7641 13.0126 6.7641 12.9873 6.77972 12.9717C6.79534 12.9561 6.82067 12.9561 6.83629 12.9717ZM10.6 9.3664C10.556 9.3664 10.52 9.4024 10.52 9.4464C10.52 9.4904 10.556 9.5264 10.6 9.5264C10.644 9.5264 10.68 9.4904 10.68 9.4464C10.68 9.4024 10.644 9.3664 10.6 9.3664Z" stroke="#819299" stroke-linecap="round" stroke-linejoin="round"/>
</svg>
