<svg width="20" height="16" viewBox="0 0 20 16" fill="none" xmlns="http://www.w3.org/2000/svg">
<path d="M1.33333 14.6666C1.33333 12.4576 3.12433 10.6666 5.33333 10.6666H9.33333C11.5423 10.6666 13.3333 12.4576 13.3333 14.6666M13.6667 1.98431C15.0477 1.98431 16.1667 3.10331 16.1667 4.48431C16.1667 5.86531 15.0477 6.98431 13.6667 6.98431M14.6667 9.66665C16.8757 9.66665 18.6667 11.4576 18.6667 13.6666M9.73823 2.32944C11.0664 3.65761 11.0664 5.81101 9.73823 7.13918C8.41006 8.46735 6.25666 8.46735 4.92849 7.13918C3.60032 5.81101 3.60032 3.65761 4.92849 2.32944C6.25666 1.00127 8.41006 1.00127 9.73823 2.32944Z" stroke="#819299" stroke-linecap="round" stroke-linejoin="round"/>
</svg>
