<svg width="18" height="16" viewBox="0 0 18 16" fill="none" xmlns="http://www.w3.org/2000/svg">
<path d="M2.33333 7.16667V15.5M9 12.1667V15.5M11.5 15.5H6.5M17.3333 7.16667H0.666668M15.6667 15.5V7.16667M7.33333 0.5H10.6667C11.1087 0.5 11.5326 0.675595 11.8452 0.988155C12.1577 1.30072 12.3333 1.72464 12.3333 2.16667V7.16667H5.66667V2.16667C5.66667 1.72464 5.84226 1.30072 6.15482 0.988155C6.46738 0.675595 6.89131 0.5 7.33333 0.5ZM5.66667 9.66666H12.3333C12.5543 9.66666 12.7663 9.75446 12.9226 9.91074C13.0789 10.067 13.1667 10.279 13.1667 10.5V10.9167C13.1667 11.2482 13.035 11.5661 12.8005 11.8005C12.5661 12.035 12.2482 12.1667 11.9167 12.1667H6.08333C5.75181 12.1667 5.43387 12.035 5.19945 11.8005C4.96503 11.5661 4.83333 11.2482 4.83333 10.9167V10.5C4.83333 10.279 4.92113 10.067 5.07741 9.91074C5.23369 9.75446 5.44565 9.66666 5.66667 9.66666Z" stroke="#819299" stroke-linecap="round" stroke-linejoin="round"/>
</svg>
