<svg width="20" height="16" viewBox="0 0 20 16" fill="none" xmlns="http://www.w3.org/2000/svg">
<path d="M15.6667 3.66663H16.6667C17.7717 3.66663 18.6667 4.56163 18.6667 5.66663V12.6666C18.6667 13.7716 17.7717 14.6666 16.6667 14.6666H5.66667C4.56167 14.6666 3.66667 13.7716 3.66667 12.6666V11.6666M12.1667 3.66663H12.6667M3.66667 8.16663H4.16667M2.74967 11.0836H13.5827C14.7337 11.0836 15.6657 10.1506 15.6657 9.00063V2.75063C15.6667 1.59963 14.7337 0.666626 13.5837 0.666626H2.74967C1.59967 0.666626 0.666666 1.59963 0.666666 2.74963V8.99963C0.666666 10.1506 1.59967 11.0836 2.74967 11.0836ZM9.32367 4.76962C9.93367 5.37962 9.93367 6.36962 9.32367 6.97962C8.71367 7.58962 7.72367 7.58962 7.11367 6.97962C6.50367 6.36962 6.50367 5.37962 7.11367 4.76962C7.72367 4.15962 8.71367 4.15962 9.32367 4.76962Z" stroke="#819299" stroke-linecap="round" stroke-linejoin="round"/>
</svg>
