<svg width="16" height="16" viewBox="0 0 16 16" fill="none" xmlns="http://www.w3.org/2000/svg">
<path d="M2.29629 3.11107V0.666626M2.29629 15.3333V6.37033M8 9.62959V0.666626M8 15.3333V12.8888M13.7037 3.11107V0.666626M13.7037 15.3333V6.37033M3.44861 3.58838C4.08502 4.22479 4.08502 5.25662 3.44861 5.89303C2.8122 6.52944 1.78038 6.52944 1.14396 5.89303C0.507554 5.25662 0.507554 4.22479 1.14396 3.58838C1.78037 2.95197 2.8122 2.95197 3.44861 3.58838ZM9.15231 10.1069C9.78872 10.7433 9.78872 11.7751 9.15231 12.4116C8.5159 13.048 7.48407 13.048 6.84766 12.4116C6.21125 11.7751 6.21125 10.7433 6.84766 10.1069C7.48407 9.4705 8.5159 9.4705 9.15231 10.1069ZM14.856 3.58838C15.4924 4.22479 15.4924 5.25662 14.856 5.89303C14.2196 6.52944 13.1878 6.52944 12.5514 5.89303C11.915 5.25662 11.915 4.22479 12.5514 3.58838C13.1878 2.95197 14.2196 2.95197 14.856 3.58838Z" stroke="#819299" stroke-linecap="round" stroke-linejoin="round"/>
</svg>
