<svg width="19" height="16" viewBox="0 0 19 16" fill="none" xmlns="http://www.w3.org/2000/svg">
<path d="M6.69411 11.1777H2.54554C1.69143 11.1777 1 10.4851 1 9.62959V2.21477C1 1.35922 1.69143 0.666626 2.54554 0.666626H14.9099C15.764 0.666626 16.4554 1.35922 16.4554 2.21477V7.18514M17.6667 12.4814L16.4465 11.2592M16.4465 11.2592L15.2263 12.4814M16.4465 11.2592V14.0304C16.4465 14.7474 15.8608 15.3333 15.1458 15.3333H13.2017M9.55012 12.4814L10.7703 13.7037M10.7703 13.7037L11.9904 12.4814M10.7703 13.7037V10.9325C10.7703 10.2154 11.356 9.62959 12.071 9.62959H14.0151M4.25378 8.81477H3.44033M14.0151 3.11107H13.2017M10.0935 4.71707C10.8476 5.4724 10.8476 6.69789 10.0935 7.45403C9.33943 8.20937 8.11601 8.20937 7.36114 7.45403C6.60707 6.6987 6.60707 5.47322 7.36114 4.71707C8.11601 3.96092 9.33943 3.96092 10.0935 4.71707Z" stroke="#819299" stroke-linecap="round" stroke-linejoin="round"/>
</svg>
