<svg width="17" height="18" viewBox="0 0 17 18" fill="none" xmlns="http://www.w3.org/2000/svg">
<path d="M7.81779 11.563V15.6667C7.81779 16.0203 7.95826 16.3594 8.20831 16.6095C8.45836 16.8595 8.7975 17 9.15112 17H13.5956C13.9492 17 14.2883 16.8595 14.5384 16.6095C14.7884 16.3594 14.9289 16.0203 14.9289 15.6667V11.627M15.7778 12.3061L11.8886 9.19478C11.731 9.06869 11.5352 9 11.3333 9C11.1315 9 10.9357 9.06869 10.778 9.19478L6.88889 12.3061M4.22222 2.77778H2.44445C1.97295 2.77778 1.52076 2.96508 1.18737 3.29848C0.853969 3.63187 0.666668 4.08406 0.666668 4.55556V15.2222C0.666668 15.6937 0.853969 16.1459 1.18737 16.4793C1.52076 16.8127 1.97295 17 2.44445 17H5.11111M11.3333 2.77778H13.1111C13.5826 2.77778 14.0348 2.96508 14.3682 3.29848C14.7016 3.63187 14.8889 4.08406 14.8889 4.55556V8.11111M5.11111 1H10.4444C10.9354 1 11.3333 1.39797 11.3333 1.88889V3.66667C11.3333 4.15759 10.9354 4.55556 10.4444 4.55556H5.11111C4.62019 4.55556 4.22222 4.15759 4.22222 3.66667V1.88889C4.22222 1.39797 4.62019 1 5.11111 1Z" stroke="#819299" stroke-linecap="round" stroke-linejoin="round"/>
</svg>
