<svg width="90" height="90" viewBox="0 0 90 90" fill="none" xmlns="http://www.w3.org/2000/svg">
<circle cx="45" cy="45" r="45" fill="#F5F5F5"/>
<path d="M17.8289 38.3086H18.9832C20.0906 38.3086 20.7293 38.8008 20.7293 39.5918V39.6035C20.7293 40.4004 20.0438 40.9219 19.0184 40.9219C17.9988 40.9219 17.3074 40.4648 17.2371 39.7031L17.2313 39.668H15.7664L15.7723 39.7207C15.8543 41.209 17.1434 42.2109 19.0125 42.2109C20.8582 42.2109 22.2703 41.1504 22.2703 39.6914V39.6797C22.2703 38.5195 21.491 37.7578 20.3836 37.6465V37.5469C21.3211 37.3359 21.9715 36.5625 21.9715 35.6309V35.6191C21.9715 34.2656 20.7645 33.334 19.0477 33.334C17.2605 33.334 16.0828 34.2715 15.9832 35.7656L15.9773 35.8418H17.4012L17.407 35.8066C17.4773 35.0625 18.0809 34.623 19.0008 34.623C19.9441 34.623 20.5008 35.0742 20.5008 35.7891V35.8008C20.5008 36.5684 19.9031 37.084 18.9598 37.084H17.8289V38.3086ZM25.3102 42.1055C26.1539 42.1055 26.8336 41.7422 27.1852 41.1211H27.2848V42H28.7262V37.623C28.7262 36.2695 27.8004 35.4727 26.1539 35.4727C24.6305 35.4727 23.5992 36.1875 23.4586 37.2656L23.4527 37.3184H24.8297L24.8355 37.2949C24.982 36.873 25.4156 36.6328 26.0836 36.6328C26.8688 36.6328 27.2848 36.9844 27.2848 37.623V38.1738L25.6383 38.2734C24.0797 38.3672 23.2066 39.0352 23.2066 40.1777V40.1895C23.2066 41.3555 24.0914 42.1055 25.3102 42.1055ZM24.648 40.1191V40.1074C24.648 39.5801 25.0289 39.2812 25.8434 39.2285L27.2848 39.1348V39.6504C27.2848 40.4121 26.6344 40.9863 25.7555 40.9863C25.1109 40.9863 24.648 40.6641 24.648 40.1191ZM34.6078 36.7266V35.5957H30.2895V42H31.7484V36.7266H34.6078ZM35.7844 44.127H37.2434V40.9805H37.343C37.677 41.6719 38.4094 42.1055 39.2883 42.1055C40.9113 42.1055 41.9191 40.8457 41.9191 38.8066V38.7949C41.9191 36.7676 40.8938 35.4902 39.2883 35.4902C38.3918 35.4902 37.6945 35.9004 37.343 36.5977H37.2434V35.5957H35.7844V44.127ZM38.8313 40.875C37.841 40.875 37.2258 40.084 37.2258 38.8008V38.7891C37.2258 37.5059 37.841 36.7207 38.8313 36.7207C39.8273 36.7207 40.4309 37.5059 40.4309 38.7949V38.8066C40.4309 40.0898 39.8273 40.875 38.8313 40.875ZM43.6348 44.25C45.0527 44.25 45.7852 43.7402 46.3359 42.1348L48.6328 35.5957H47.0977L45.6094 40.5996H45.498L44.0039 35.5957H42.4102L44.7012 42.0059L44.625 42.2988C44.4668 42.8789 44.1094 43.125 43.5117 43.125C43.3594 43.125 43.1953 43.1191 43.0781 43.1074V44.2266C43.2539 44.2441 43.459 44.25 43.6348 44.25ZM51.8426 42.1348C53.4891 42.1348 54.5379 41.3086 54.5379 40.1191V40.1074C54.5379 39.3926 54.1043 38.877 53.2137 38.7012V38.6016C53.9051 38.4434 54.3328 37.9219 54.3328 37.248V37.2363C54.3328 36.1523 53.3953 35.4668 51.8777 35.4668C50.3074 35.4668 49.4109 36.2227 49.2645 37.3418L49.2586 37.3887H50.6414L50.6473 37.3594C50.7352 36.8965 51.1746 36.5977 51.8309 36.5977C52.5516 36.5977 52.909 36.9492 52.909 37.4121V37.4238C52.909 37.9512 52.5574 38.2559 51.8133 38.2559H50.8992V39.2402H51.8191C52.6453 39.2402 53.0906 39.5273 53.0906 40.0957V40.1074C53.0906 40.6348 52.6219 41.0039 51.825 41.0039C51.1395 41.0039 50.6531 40.7168 50.5184 40.2246L50.5066 40.1836H49.0887L49.0945 40.2363C49.2352 41.4785 50.3895 42.1348 51.8426 42.1348ZM55.8434 42H57.2848L59.9801 37.6875H60.1031V42H61.5445V35.5957H60.1031L57.402 39.8848H57.2848V35.5957H55.8434V42ZM68.0297 35.5957H62.6273V36.7266H64.5961V42H66.0551V36.7266H68.0297V35.5957ZM69.1066 42H71.8312C73.3254 42 74.2805 41.1328 74.2805 39.7734V39.7617C74.2805 38.4023 73.3254 37.5293 71.8312 37.5293H70.5656V35.5957H69.1066V42ZM71.6437 38.6543C72.3527 38.6543 72.8098 39.0938 72.8098 39.7559V39.7676C72.8098 40.4238 72.3586 40.875 71.6437 40.875H70.5656V38.6543H71.6437ZM34.4637 58.127H35.8875V56.0879C37.9324 56.0469 39.2801 54.7871 39.2801 52.8066V52.7949C39.2801 50.791 37.9441 49.5547 35.8875 49.5137V47.498H34.4637V49.5137C32.4129 49.5488 31.0711 50.8086 31.0711 52.7891V52.8008C31.0711 54.7988 32.407 56.041 34.4637 56.0879V58.127ZM34.4754 54.9453C33.2918 54.9102 32.5418 54.1191 32.5418 52.8066V52.7949C32.5418 51.4824 33.2977 50.6797 34.4754 50.6504V54.9453ZM35.8758 54.9453V50.6504C37.0535 50.6855 37.8035 51.4766 37.8035 52.7949V52.8066C37.8035 54.1133 37.0477 54.916 35.8758 54.9453ZM43.3219 56.1289C45.2379 56.1289 46.4039 54.875 46.4039 52.8008V52.7891C46.4039 50.7266 45.232 49.4727 43.3219 49.4727C41.4176 49.4727 40.2398 50.7324 40.2398 52.7891V52.8008C40.2398 54.875 41.4 56.1289 43.3219 56.1289ZM43.3219 54.9453C42.3082 54.9453 41.7281 54.1543 41.7281 52.8066V52.7949C41.7281 51.4473 42.3082 50.6504 43.3219 50.6504C44.3297 50.6504 44.9098 51.4473 44.9098 52.7949V52.8066C44.9098 54.1543 44.3355 54.9453 43.3219 54.9453ZM52.1977 49.5957H46.7953V50.7266H48.7641V56H50.223V50.7266H52.1977V49.5957ZM55.8469 56.1289C57.7629 56.1289 58.9289 54.875 58.9289 52.8008V52.7891C58.9289 50.7266 57.757 49.4727 55.8469 49.4727C53.9426 49.4727 52.7648 50.7324 52.7648 52.7891V52.8008C52.7648 54.875 53.925 56.1289 55.8469 56.1289ZM55.8469 54.9453C54.8332 54.9453 54.2531 54.1543 54.2531 52.8066V52.7949C54.2531 51.4473 54.8332 50.6504 55.8469 50.6504C56.8547 50.6504 57.4348 51.4473 57.4348 52.7949V52.8066C57.4348 54.1543 56.8605 54.9453 55.8469 54.9453Z" fill="black"/>
</svg>
