<svg width="16" height="16" viewBox="0 0 16 16" fill="none" xmlns="http://www.w3.org/2000/svg">
<path d="M4.52632 0.666626V15.3333M14.5614 7.99996V3.11107C14.5614 2.46276 14.3174 1.84101 13.8831 1.38259C13.4488 0.924165 12.8598 0.666626 12.2456 0.666626H2.98246C2.36827 0.666626 1.77924 0.924165 1.34495 1.38259C0.910652 1.84101 0.666668 2.46276 0.666668 3.11107V12.8888C0.666668 13.5372 0.910652 14.1589 1.34495 14.6173C1.77924 15.0758 2.36827 15.3333 2.98246 15.3333H9.1579M7.53221 7.59255L7.94056 9.31751C8.0763 9.8905 8.35699 10.4138 8.75263 10.8314L12.5351 14.824C12.8423 15.1481 13.2587 15.3301 13.693 15.3301C14.1272 15.3301 14.5437 15.1481 14.8509 14.824C15.1578 14.4998 15.3303 14.0602 15.3303 13.6018C15.3303 13.1434 15.1578 12.7038 14.8509 12.3796L11.0684 8.387C10.6728 7.96937 10.177 7.67309 9.63418 7.52981L8 7.09877C7.93539 7.08179 7.86771 7.08274 7.80354 7.10154C7.73937 7.12033 7.68091 7.15633 7.63382 7.20603C7.58674 7.25573 7.55263 7.31745 7.53483 7.38518C7.51702 7.45291 7.51612 7.52435 7.53221 7.59255Z" stroke="#819299" stroke-linecap="round" stroke-linejoin="round"/>
</svg>
